<svg width="207" height="58" viewBox="0 0 207 58" fill="none" xmlns="http://www.w3.org/2000/svg">
<g filter="url(#filter0_d_1_174)">
<path d="M5.06726 20.5777H6.63257L7.55753 5.2745L12.5855 20.5777H16.8308L21.4793 5.34535L22.4754 20.5777H26.5073L25.2503 1.23616H21.2185L16.0482 18.1925L10.4747 1.23616H6.22939L5.06726 20.5777Z" fill="#323232"/>
<path d="M28.1378 20.5777H29.6557L31.3871 14.9807H38.6681L40.5181 20.5777H44.7634L38.3598 1.23616H34.1145L28.1378 20.5777ZM31.7902 13.6818L34.8972 3.59776L38.2412 13.6818H31.7902Z" fill="#323232"/>
<path d="M46.869 20.5777H50.9009V12.0051H52.7271L59.4864 20.5777H64.4906L57.0672 11.273C59.2018 10.4464 60.3639 8.91137 60.3639 6.62061C60.3639 3.00736 57.4467 1.23616 52.4187 1.23616H46.869V20.5777ZM52.4187 2.53504C55.2648 2.53504 56.2134 3.59776 56.2134 6.597C56.2134 9.59623 55.2648 10.7062 52.4187 10.7062H50.9009V2.53504H52.4187Z" fill="#323232"/>
<path d="M70.6196 20.5777V12.5719L71.924 11.2257L79.3 20.5777H84.3042L74.604 8.39182L81.4345 1.23616H79.3948L70.6196 10.6353V1.23616H66.5877V20.5777H70.6196Z" fill="#323232"/>
<path d="M86.5836 20.5777H99.2959V19.1607H90.6155V11.2494H97.7306V9.87963H90.6155V2.65312H99.1061V1.23616H86.5836V20.5777Z" fill="#323232"/>
<path d="M101.4 1.23616V2.65312H109.227V20.5777H113.259V2.65312H121.085V1.23616H101.4Z" fill="#323232"/>
<path d="M127.691 20.5777V12.0051H129.209C134.237 12.0051 137.154 10.2339 137.154 6.62061C137.154 3.00736 134.237 1.23616 129.209 1.23616H123.659V20.5777H127.691ZM129.209 2.53504C132.055 2.53504 133.004 3.59776 133.004 6.597C133.004 9.59623 132.055 10.7062 129.209 10.7062H127.691V2.53504H129.209Z" fill="#323232"/>
<path d="M140.099 20.5777H152.811V19.1607H144.13V1.23616H140.099V20.5777Z" fill="#323232"/>
<path d="M153.857 20.5777H155.374L157.106 14.9807H164.387L166.237 20.5777H170.482L164.079 1.23616H159.833L153.857 20.5777ZM157.509 13.6818L160.616 3.59776L163.96 13.6818H157.509Z" fill="#323232"/>
<path d="M185.67 17.5076C185.67 17.5076 184.342 19.515 180.429 19.515C177.725 19.515 175.306 17.7438 175.306 10.8007C175.306 3.85754 177.749 2.29888 180.429 2.29888C184.129 2.29888 185.386 4.42432 185.386 4.42432L186.571 3.10183C186.571 3.10183 184.532 1 180.429 1C177.037 1 170.918 3.10183 170.918 10.8007C170.918 18.4995 177.013 20.8138 180.429 20.8138C184.579 20.8138 186.975 18.9718 186.975 18.9718L185.67 17.5076Z" fill="#323232"/>
<path d="M189.61 20.5777H202.322V19.1607H193.642V11.2494H200.757V9.87963H193.642V2.65312H202.132V1.23616H189.61V20.5777Z" fill="#323232"/>
<path d="M32.2772 50.7395H33.9518L35.862 44.5645H43.8949L45.9358 50.7395H50.6195L43.5547 29.4007H38.871L32.2772 50.7395ZM36.3068 43.1315L39.7345 32.0062L43.4239 43.1315H36.3068Z" fill="black"/>
<path d="M32.2772 50.7395H33.9518L35.862 44.5645H43.8949L45.9358 50.7395H50.6195L43.5547 29.4007H38.871L32.2772 50.7395ZM36.3068 43.1315L39.7345 32.0062L43.4239 43.1315H36.3068Z" fill="url(#paint0_linear_1_174)"/>
<path d="M67.3759 47.3523C67.3759 47.3523 65.9106 49.567 61.5933 49.567C58.6104 49.567 55.9414 47.6129 55.9414 39.9528C55.9414 32.2928 58.6365 30.5731 61.5933 30.5731C65.6752 30.5731 67.062 32.9181 67.062 32.9181L68.3702 31.459C68.3702 31.459 66.12 29.1401 61.5933 29.1401C57.8515 29.1401 51.1007 31.459 51.1007 39.9528C51.1007 48.4466 57.8254 51 61.5933 51C66.1723 51 68.8151 48.9677 68.8151 48.9677L67.3759 47.3523Z" fill="black"/>
<path d="M67.3759 47.3523C67.3759 47.3523 65.9106 49.567 61.5933 49.567C58.6104 49.567 55.9414 47.6129 55.9414 39.9528C55.9414 32.2928 58.6365 30.5731 61.5933 30.5731C65.6752 30.5731 67.062 32.9181 67.062 32.9181L68.3702 31.459C68.3702 31.459 66.12 29.1401 61.5933 29.1401C57.8515 29.1401 51.1007 31.459 51.1007 39.9528C51.1007 48.4466 57.8254 51 61.5933 51C66.1723 51 68.8151 48.9677 68.8151 48.9677L67.3759 47.3523Z" fill="url(#paint1_linear_1_174)"/>
<path d="M69.8384 50.7395H71.513L73.4231 44.5645H81.4561L83.497 50.7395H88.1807L81.1159 29.4007H76.4322L69.8384 50.7395ZM73.868 43.1315L77.2957 32.0062L80.9851 43.1315H73.868Z" fill="black"/>
<path d="M69.8384 50.7395H71.513L73.4231 44.5645H81.4561L83.497 50.7395H88.1807L81.1159 29.4007H76.4322L69.8384 50.7395ZM73.868 43.1315L77.2957 32.0062L80.9851 43.1315H73.868Z" fill="url(#paint2_linear_1_174)"/>
<path d="M90.5037 29.4007V50.7395H99.3217C103.063 50.7395 109.788 48.4466 109.788 39.9528C109.788 31.459 103.063 29.4007 99.3217 29.4007H90.5037ZM94.952 49.3064V30.8337H99.3217C102.278 30.8337 105.078 32.2667 105.078 39.9268C105.078 47.5868 102.278 49.3064 99.3217 49.3064H94.952Z" fill="black"/>
<path d="M90.5037 29.4007V50.7395H99.3217C103.063 50.7395 109.788 48.4466 109.788 39.9528C109.788 31.459 103.063 29.4007 99.3217 29.4007H90.5037ZM94.952 49.3064V30.8337H99.3217C102.278 30.8337 105.078 32.2667 105.078 39.9268C105.078 47.5868 102.278 49.3064 99.3217 49.3064H94.952Z" fill="url(#paint3_linear_1_174)"/>
<path d="M113.484 50.7395H127.509V49.1762H117.933V40.4479H125.782V38.9367H117.933V30.964H127.3V29.4007H113.484V50.7395Z" fill="black"/>
<path d="M113.484 50.7395H127.509V49.1762H117.933V40.4479H125.782V38.9367H117.933V30.964H127.3V29.4007H113.484V50.7395Z" fill="url(#paint4_linear_1_174)"/>
<path d="M130.485 50.7395H132.212L133.233 33.856L138.78 50.7395H143.464L148.592 33.9342L149.691 50.7395H154.139L152.752 29.4007H148.304L142.6 48.1079L136.451 29.4007H131.767L130.485 50.7395Z" fill="black"/>
<path d="M130.485 50.7395H132.212L133.233 33.856L138.78 50.7395H143.464L148.592 33.9342L149.691 50.7395H154.139L152.752 29.4007H148.304L142.6 48.1079L136.451 29.4007H131.767L130.485 50.7395Z" fill="url(#paint5_linear_1_174)"/>
<path d="M157.639 50.7395H161.956V29.4007H157.639V50.7395Z" fill="black"/>
<path d="M157.639 50.7395H161.956V29.4007H157.639V50.7395Z" fill="url(#paint6_linear_1_174)"/>
<path d="M181.746 47.3523C181.746 47.3523 180.281 49.567 175.963 49.567C172.98 49.567 170.311 47.6129 170.311 39.9528C170.311 32.2928 173.007 30.5731 175.963 30.5731C180.045 30.5731 181.432 32.9181 181.432 32.9181L182.74 31.459C182.74 31.459 180.49 29.1401 175.963 29.1401C172.222 29.1401 165.471 31.459 165.471 39.9528C165.471 48.4466 172.195 51 175.963 51C180.542 51 183.185 48.9677 183.185 48.9677L181.746 47.3523Z" fill="black"/>
<path d="M181.746 47.3523C181.746 47.3523 180.281 49.567 175.963 49.567C172.98 49.567 170.311 47.6129 170.311 39.9528C170.311 32.2928 173.007 30.5731 175.963 30.5731C180.045 30.5731 181.432 32.9181 181.432 32.9181L182.74 31.459C182.74 31.459 180.49 29.1401 175.963 29.1401C172.222 29.1401 165.471 31.459 165.471 39.9528C165.471 48.4466 172.195 51 175.963 51C180.542 51 183.185 48.9677 183.185 48.9677L181.746 47.3523Z" fill="url(#paint7_linear_1_174)"/>
<path d="M184.208 50.7395H185.883L187.793 44.5645H195.826L197.867 50.7395H202.551L195.486 29.4007H190.802L184.208 50.7395ZM188.238 43.1315L191.666 32.0062L195.355 43.1315H188.238Z" fill="black"/>
<path d="M184.208 50.7395H185.883L187.793 44.5645H195.826L197.867 50.7395H202.551L195.486 29.4007H190.802L184.208 50.7395ZM188.238 43.1315L191.666 32.0062L195.355 43.1315H188.238Z" fill="url(#paint8_linear_1_174)"/>
<path d="M4.32673 36.8311H25.9635C26.2352 36.8311 26.2756 36.7029 26.0548 36.5451L15.5475 29.0985C15.3268 28.9429 14.966 28.9429 14.7431 29.0985L4.23528 36.5451C4.01455 36.7029 4.05505 36.8311 4.32673 36.8311ZM6.6787 35.7705L14.7425 30.0565C14.9654 29.8985 15.3262 29.8985 15.5469 30.0565L23.609 35.7705C23.8319 35.9263 23.7896 36.0525 23.5177 36.0525L6.77404 36.0523C6.50235 36.0523 6.4597 35.9263 6.6787 35.7705Z" fill="url(#paint9_linear_1_174)"/>
<path d="M9.2748 38.6787C9.45499 38.6787 9.60178 38.4598 9.60178 38.1904V37.9019C9.60178 37.6325 9.37888 37.4113 9.10719 37.4113H6.36038C6.09086 37.4113 5.86796 37.6325 5.86796 37.9019V38.1904C5.86796 38.4598 6.01432 38.6787 6.19494 38.6787C6.37752 38.6787 6.52387 38.8977 6.52387 39.1669V45.6036C6.52387 45.8731 6.37752 46.0942 6.19494 46.0942C6.01432 46.0942 5.86796 46.313 5.86796 46.5824V46.8688C5.86796 47.1382 6.09086 47.3592 6.36038 47.3592H9.10696C9.37865 47.3592 9.60156 47.1382 9.60156 46.8688V46.5824C9.60156 46.313 9.45477 46.0942 9.27458 46.0942C9.09396 46.0942 8.94543 45.8732 8.94543 45.6036L8.94521 39.1669C8.94564 38.8979 9.09418 38.6787 9.2748 38.6787Z" fill="url(#paint10_linear_1_174)"/>
<path d="M14.2523 38.6787C14.4349 38.6787 14.5814 38.4598 14.5814 38.1904V37.9019C14.5814 37.6325 14.3585 37.4113 14.0868 37.4113H11.34C11.0683 37.4113 10.8454 37.6325 10.8454 37.9019V38.1904C10.8454 38.4598 10.994 38.6787 11.1746 38.6787C11.3552 38.6787 11.5014 38.8977 11.5014 39.1669V45.6036C11.5014 45.8731 11.355 46.0942 11.1746 46.0942C10.9944 46.0942 10.8454 46.313 10.8454 46.5824V46.8688C10.8454 47.1382 11.0683 47.3592 11.34 47.3592H14.0866C14.3583 47.3592 14.5812 47.1382 14.5812 46.8688V46.5824C14.5812 46.313 14.4344 46.0942 14.2521 46.0942C14.0714 46.0942 13.9229 45.8732 13.9229 45.6036V39.1669C13.9236 38.8979 14.0721 38.6787 14.2523 38.6787Z" fill="url(#paint11_linear_1_174)"/>
<path d="M19.2325 38.6787C19.4151 38.6787 19.5595 38.4598 19.5595 38.1904V37.9019C19.5595 37.6325 19.3366 37.4113 19.0671 37.4113H16.3205C16.0488 37.4113 15.8259 37.6325 15.8259 37.9019V38.1904C15.8259 38.4598 15.9723 38.6787 16.1551 38.6787C16.3335 38.6787 16.4818 38.8977 16.4818 39.1669V45.6036C16.4818 45.8731 16.3333 46.0942 16.1551 46.0942C15.9725 46.0942 15.8259 46.313 15.8259 46.5824V46.8688C15.8259 47.1382 16.0488 47.3592 16.3205 47.3592H19.0671C19.3366 47.3592 19.5595 47.1382 19.5595 46.8688V46.5824C19.5595 46.313 19.4149 46.0942 19.2325 46.0942C19.0519 46.0942 18.9034 45.8732 18.9034 45.6036V39.1669C18.9034 38.8979 19.0519 38.6787 19.2325 38.6787Z" fill="url(#paint12_linear_1_174)"/>
<path d="M24.2122 38.6787C24.3903 38.6787 24.5392 38.4598 24.5392 38.1904V37.9019C24.5392 37.6325 24.3163 37.4113 24.0468 37.4113H21.3002C21.0285 37.4113 20.8035 37.6325 20.8035 37.9019V38.1904C20.8035 38.4598 20.952 38.6787 21.1346 38.6787C21.3108 38.6787 21.4592 38.8977 21.4592 39.1669V45.6036C21.4592 45.8731 21.3106 46.0942 21.1346 46.0942C20.952 46.0942 20.8035 46.313 20.8035 46.5824V46.8688C20.8035 47.1382 21.0285 47.3592 21.3002 47.3592H24.0468C24.3163 47.3592 24.5392 47.1382 24.5392 46.8688V46.5824C24.5392 46.313 24.3903 46.0942 24.2122 46.0942C24.0297 46.0942 23.8831 45.8732 23.8831 45.6036V39.1669C23.8835 38.8979 24.0299 38.6787 24.2122 38.6787Z" fill="url(#paint13_linear_1_174)"/>
<path d="M26.0296 49.9058C25.885 49.9058 25.7685 49.7581 25.7685 49.5773C25.7685 49.401 25.6239 49.2512 25.4502 49.2512C25.2739 49.2512 25.1298 49.1056 25.1298 48.9248C25.1298 48.7438 24.9979 48.5965 24.8349 48.5965C24.6714 48.5965 24.54 48.4488 24.54 48.2702C24.54 48.0915 24.3171 47.9438 24.0475 47.9438L6.24529 47.9436C5.9736 47.9436 5.75069 48.0913 5.75069 48.27C5.75069 48.4486 5.61713 48.5963 5.4558 48.5963C5.29448 48.5963 5.16091 48.744 5.16091 48.9246C5.16091 49.1052 5.01845 49.251 4.8426 49.251C4.66459 49.251 4.52213 49.4004 4.52213 49.5771C4.52213 49.7583 4.40547 49.9056 4.26106 49.9056C4.11861 49.9056 4 50.0529 4 50.2335C4 50.4147 4.2229 50.562 4.4946 50.562H25.7989C26.0706 50.562 26.2913 50.4143 26.2913 50.2335C26.2909 50.0531 26.1738 49.9058 26.0296 49.9058Z" fill="url(#paint14_linear_1_174)"/>
<path d="M7.58733 35.7953H22.7035C22.9752 35.7953 23.0177 35.6689 22.7948 35.5089L15.5481 30.3733C15.3274 30.2178 14.9665 30.2178 14.7437 30.3733L7.49643 35.5089C7.27353 35.6689 7.31542 35.7953 7.58733 35.7953Z" fill="url(#paint15_linear_1_174)"/>
</g>
<defs>
<filter id="filter0_d_1_174" x="0" y="0" width="206.551" height="58" filterUnits="userSpaceOnUse" color-interpolation-filters="sRGB">
<feFlood flood-opacity="0" result="BackgroundImageFix"/>
<feColorMatrix in="SourceAlpha" type="matrix" values="0 0 0 0 0 0 0 0 0 0 0 0 0 0 0 0 0 0 127 0" result="hardAlpha"/>
<feOffset dy="3"/>
<feGaussianBlur stdDeviation="2"/>
<feComposite in2="hardAlpha" operator="out"/>
<feColorMatrix type="matrix" values="0 0 0 0 0 0 0 0 0 0 0 0 0 0 0 0 0 0 0.23 0"/>
<feBlend mode="normal" in2="BackgroundImageFix" result="effect1_dropShadow_1_174"/>
<feBlend mode="normal" in="SourceGraphic" in2="effect1_dropShadow_1_174" result="shape"/>
</filter>
<linearGradient id="paint0_linear_1_174" x1="-2.70349" y1="18.9433" x2="23.2835" y2="-36.8329" gradientUnits="userSpaceOnUse">
<stop stop-color="#5042AF"/>
<stop offset="1" stop-color="#6742D1"/>
</linearGradient>
<linearGradient id="paint1_linear_1_174" x1="-2.70349" y1="18.9433" x2="23.2835" y2="-36.8329" gradientUnits="userSpaceOnUse">
<stop stop-color="#5042AF"/>
<stop offset="1" stop-color="#6742D1"/>
</linearGradient>
<linearGradient id="paint2_linear_1_174" x1="-2.70349" y1="18.9433" x2="23.2835" y2="-36.8329" gradientUnits="userSpaceOnUse">
<stop stop-color="#5042AF"/>
<stop offset="1" stop-color="#6742D1"/>
</linearGradient>
<linearGradient id="paint3_linear_1_174" x1="-2.70349" y1="18.9433" x2="23.2835" y2="-36.8329" gradientUnits="userSpaceOnUse">
<stop stop-color="#5042AF"/>
<stop offset="1" stop-color="#6742D1"/>
</linearGradient>
<linearGradient id="paint4_linear_1_174" x1="-2.70349" y1="18.9433" x2="23.2835" y2="-36.8329" gradientUnits="userSpaceOnUse">
<stop stop-color="#5042AF"/>
<stop offset="1" stop-color="#6742D1"/>
</linearGradient>
<linearGradient id="paint5_linear_1_174" x1="-2.70349" y1="18.9433" x2="23.2835" y2="-36.8329" gradientUnits="userSpaceOnUse">
<stop stop-color="#5042AF"/>
<stop offset="1" stop-color="#6742D1"/>
</linearGradient>
<linearGradient id="paint6_linear_1_174" x1="-2.70349" y1="18.9433" x2="23.2835" y2="-36.8329" gradientUnits="userSpaceOnUse">
<stop stop-color="#5042AF"/>
<stop offset="1" stop-color="#6742D1"/>
</linearGradient>
<linearGradient id="paint7_linear_1_174" x1="-2.70349" y1="18.9433" x2="23.2835" y2="-36.8329" gradientUnits="userSpaceOnUse">
<stop stop-color="#5042AF"/>
<stop offset="1" stop-color="#6742D1"/>
</linearGradient>
<linearGradient id="paint8_linear_1_174" x1="-2.70349" y1="18.9433" x2="23.2835" y2="-36.8329" gradientUnits="userSpaceOnUse">
<stop stop-color="#5042AF"/>
<stop offset="1" stop-color="#6742D1"/>
</linearGradient>
<linearGradient id="paint9_linear_1_174" x1="6.82694" y1="32.2442" x2="10.2789" y2="26.9942" gradientUnits="userSpaceOnUse">
<stop stop-color="#6557C6"/>
<stop offset="1" stop-color="#7D56EC"/>
</linearGradient>
<linearGradient id="paint10_linear_1_174" x1="6.82694" y1="32.2442" x2="10.2789" y2="26.9942" gradientUnits="userSpaceOnUse">
<stop stop-color="#6557C6"/>
<stop offset="1" stop-color="#7D56EC"/>
</linearGradient>
<linearGradient id="paint11_linear_1_174" x1="6.82694" y1="32.2442" x2="10.2789" y2="26.9942" gradientUnits="userSpaceOnUse">
<stop stop-color="#6557C6"/>
<stop offset="1" stop-color="#7D56EC"/>
</linearGradient>
<linearGradient id="paint12_linear_1_174" x1="6.82694" y1="32.2442" x2="10.2789" y2="26.9942" gradientUnits="userSpaceOnUse">
<stop stop-color="#6557C6"/>
<stop offset="1" stop-color="#7D56EC"/>
</linearGradient>
<linearGradient id="paint13_linear_1_174" x1="6.82694" y1="32.2442" x2="10.2789" y2="26.9942" gradientUnits="userSpaceOnUse">
<stop stop-color="#6557C6"/>
<stop offset="1" stop-color="#7D56EC"/>
</linearGradient>
<linearGradient id="paint14_linear_1_174" x1="6.82694" y1="32.2442" x2="10.2789" y2="26.9942" gradientUnits="userSpaceOnUse">
<stop stop-color="#6557C6"/>
<stop offset="1" stop-color="#7D56EC"/>
</linearGradient>
<linearGradient id="paint15_linear_1_174" x1="6.82694" y1="32.2442" x2="10.2789" y2="26.9942" gradientUnits="userSpaceOnUse">
<stop stop-color="#6557C6"/>
<stop offset="1" stop-color="#7D56EC"/>
</linearGradient>
</defs>
</svg>
