<svg width="18" height="19" viewBox="0 0 18 19" fill="none" xmlns="http://www.w3.org/2000/svg">
<path d="M1.62514 18.4939C1.35475 18.4921 1.08906 18.4231 0.851997 18.2931C0.614933 18.163 0.413946 17.976 0.267143 17.7489C0.118585 17.5252 0.028719 17.2678 0.00582556 17.0002C-0.0170679 16.7326 0.0277478 16.4636 0.136143 16.2179L1.18714 13.7649C0.150297 11.8756 -0.170171 9.67569 0.284586 7.56909C0.739344 5.46249 1.9388 3.59066 3.66269 2.29731C5.38659 1.00397 7.5192 0.375935 9.66892 0.528541C11.8186 0.681147 13.8411 1.60415 15.365 3.12805C16.8889 4.65195 17.8119 6.67446 17.9645 8.82417C18.1172 10.9739 17.4891 13.1065 16.1958 14.8304C14.9024 16.5543 13.0306 17.7537 10.924 18.2085C8.8174 18.6633 6.61746 18.3428 4.72814 17.3059L2.27514 18.3569C2.07006 18.4464 1.84888 18.493 1.62514 18.4939ZM9.04014 2.12294C7.7373 2.12347 6.45814 2.47119 5.33433 3.1303C4.21051 3.78941 3.28265 4.73611 2.64625 5.87293C2.00984 7.00976 1.68789 8.29565 1.71354 9.59824C1.73918 10.9008 2.11149 12.173 2.79214 13.2839L3.01214 13.6429L1.63314 16.8599L4.85014 15.4809L5.21014 15.7009C6.17555 16.2925 7.26489 16.6524 8.39273 16.7523C9.52057 16.8523 10.6562 16.6895 11.7106 16.2769C12.765 15.8642 13.7094 15.2129 14.4698 14.374C15.2302 13.535 15.7859 12.5314 16.0933 11.4416C16.4007 10.3519 16.4514 9.20576 16.2415 8.09314C16.0316 6.98051 15.5667 5.93166 14.8834 5.02885C14.2001 4.12603 13.3168 3.39382 12.303 2.88964C11.2892 2.38547 10.1724 2.12304 9.04014 2.12294ZM12.2991 11.8939H5.78314C5.57206 11.8865 5.3721 11.7975 5.22539 11.6456C5.07868 11.4936 4.99669 11.2907 4.99669 11.0794C4.99669 10.8682 5.07868 10.6653 5.22539 10.5133C5.3721 10.3614 5.57206 10.2723 5.78314 10.2649H12.2991C12.4085 10.2611 12.5175 10.2793 12.6197 10.3185C12.7219 10.3578 12.8151 10.4171 12.8938 10.4931C12.9725 10.5692 13.0351 10.6602 13.0779 10.761C13.1206 10.8617 13.1427 10.97 13.1427 11.0794C13.1427 11.1889 13.1206 11.2972 13.0779 11.3979C13.0351 11.4986 12.9725 11.5897 12.8938 11.6657C12.8151 11.7418 12.7219 11.8011 12.6197 11.8403C12.5175 11.8795 12.4085 11.8978 12.2991 11.8939ZM8.22714 8.63794H5.78314C5.57206 8.63055 5.3721 8.54149 5.22539 8.38955C5.07868 8.23761 4.99669 8.03465 4.99669 7.82344C4.99669 7.61224 5.07868 7.40927 5.22539 7.25733C5.3721 7.10539 5.57206 7.01634 5.78314 7.00894H8.22714C8.43822 7.01634 8.63819 7.10539 8.7849 7.25733C8.9316 7.40927 9.0136 7.61224 9.0136 7.82344C9.0136 8.03465 8.9316 8.23761 8.7849 8.38955C8.63819 8.54149 8.43822 8.63055 8.22714 8.63794Z" fill="#686969"/>
</svg>
