<svg width="17" height="18" viewBox="0 0 17 18" fill="none" xmlns="http://www.w3.org/2000/svg">
<path id="Fill 929" d="M14.2616 18.0009H2.63555C2.3179 18.0008 2.00386 17.9334 1.71408 17.8033C1.4243 17.6732 1.16535 17.4832 0.954242 17.2458C0.743137 17.0084 0.584661 16.7291 0.489231 16.4261C0.393802 16.1231 0.36358 15.8034 0.400554 15.4879L1.54755 5.73785C1.61205 5.18985 1.87567 4.68466 2.28829 4.31831C2.70091 3.95196 3.23377 3.75002 3.78555 3.75085H4.70155C4.70155 2.75629 5.09664 1.80247 5.7999 1.0992C6.50316 0.395943 7.45699 0.000854492 8.45155 0.000854492C9.44612 0.000854492 10.3999 0.395943 11.1032 1.0992C11.8065 1.80247 12.2016 2.75629 12.2016 3.75085H13.1176C13.6687 3.75119 14.2006 3.95362 14.6125 4.31981C15.0244 4.68601 15.2877 5.19054 15.3526 5.73785L16.4996 15.4879C16.5366 15.8036 16.5063 16.1236 16.4107 16.4268C16.315 16.73 16.1563 17.0095 15.9449 17.2469C15.7334 17.4843 15.4741 17.6743 15.184 17.8042C14.8938 17.9342 14.5795 18.0012 14.2616 18.0009ZM3.78555 5.25085C3.60217 5.25103 3.42521 5.31838 3.28812 5.44017C3.15103 5.56197 3.06331 5.72977 3.04155 5.91185L1.88555 15.6609C1.87282 15.7662 1.88259 15.8731 1.91422 15.9744C1.94584 16.0757 1.99861 16.1691 2.06902 16.2485C2.13944 16.3279 2.22591 16.3914 2.3227 16.4349C2.4195 16.4785 2.52443 16.5009 2.63055 16.5009H14.2616C14.3677 16.5009 14.4726 16.4785 14.5694 16.4349C14.6662 16.3914 14.7527 16.3279 14.8231 16.2485C14.8935 16.1691 14.9463 16.0757 14.9779 15.9744C15.0095 15.8731 15.0193 15.7662 15.0066 15.6609L13.8606 5.91085C13.8386 5.72869 13.7506 5.56087 13.6134 5.43909C13.4761 5.31731 13.299 5.25 13.1156 5.24985H12.1996V6.00085C12.1996 6.19977 12.1205 6.39053 11.9799 6.53118C11.8392 6.67184 11.6485 6.75085 11.4496 6.75085C11.2506 6.75085 11.0599 6.67184 10.9192 6.53118C10.7786 6.39053 10.6996 6.19977 10.6996 6.00085V5.25085H6.19955V6.00085C6.19955 6.19977 6.12054 6.39053 5.97988 6.53118C5.83923 6.67184 5.64847 6.75085 5.44955 6.75085C5.25064 6.75085 5.05988 6.67184 4.91922 6.53118C4.77857 6.39053 4.69955 6.19977 4.69955 6.00085V5.25085H3.78555ZM8.44855 1.50085C7.85206 1.50165 7.28022 1.73896 6.85844 2.16074C6.43666 2.58253 6.19935 3.15436 6.19855 3.75085H10.6986C10.6978 3.15436 10.4605 2.58253 10.0387 2.16074C9.61688 1.73896 9.04505 1.50165 8.44855 1.50085Z" fill="#8182E8"/>
</svg>
