<svg width="13" height="18" viewBox="0 0 13 18" fill="none" xmlns="http://www.w3.org/2000/svg">
<path opacity="0.6" d="M4.18355 18C3.94172 17.9989 3.7033 17.9428 3.48638 17.8359C3.26945 17.729 3.07972 17.5741 2.93155 17.383C2.78988 17.1992 2.6932 16.9849 2.64927 16.757C2.60534 16.5292 2.61536 16.2943 2.67855 16.071L4.00355 11L1.81055 10.118C1.58198 10.0264 1.37879 9.8812 1.21814 9.69459C1.05748 9.50798 0.944083 9.28546 0.887505 9.04581C0.830927 8.80616 0.832832 8.55642 0.89306 8.31766C0.953287 8.0789 1.07007 7.85814 1.23355 7.674L7.59155 0.522C7.73112 0.359682 7.90381 0.229117 8.09803 0.139081C8.29225 0.0490446 8.50348 0.00162202 8.71755 0C8.95921 0.00121553 9.19743 0.0573987 9.41417 0.164296C9.63091 0.271192 9.82049 0.426001 9.96855 0.617C10.1102 0.800791 10.2068 1.01517 10.2507 1.24298C10.2946 1.4708 10.2847 1.70573 10.2215 1.929L8.89655 7L11.0896 7.878C11.3181 7.96958 11.5213 8.1148 11.682 8.30141C11.8426 8.48802 11.956 8.71054 12.0126 8.95019C12.0692 9.18984 12.0673 9.43958 12.007 9.67834C11.9468 9.9171 11.83 10.1379 11.6665 10.322L5.30955 17.478C5.16998 17.6403 4.99729 17.7709 4.80307 17.8609C4.60885 17.951 4.39762 17.9984 4.18355 18ZM8.73655 1.542L2.38055 8.693L5.82955 10.073L4.16355 16.458L10.5205 9.307L7.07155 7.927L8.73655 1.542Z" fill="#8385EA"/>
</svg>
