<svg width="17" height="19" viewBox="0 0 17 19" fill="none" xmlns="http://www.w3.org/2000/svg">
<path id="Fill 929" d="M14.2616 18.7755H2.63555C2.31789 18.7754 2.00386 18.7081 1.71408 18.5779C1.4243 18.4478 1.16535 18.2578 0.954242 18.0204C0.743136 17.7831 0.584661 17.5037 0.489232 17.2007C0.393802 16.8977 0.36358 16.578 0.400554 16.2625L1.54755 6.51248C1.61205 5.96448 1.87567 5.45928 2.28829 5.09294C2.70092 4.72659 3.23377 4.52464 3.78555 4.52548H4.70155C4.70155 3.53092 5.09664 2.57709 5.7999 1.87383C6.50317 1.17057 7.45699 0.775482 8.45155 0.775482C9.44612 0.775482 10.3999 1.17057 11.1032 1.87383C11.8065 2.57709 12.2016 3.53092 12.2016 4.52548H13.1176C13.6687 4.52581 14.2006 4.72825 14.6125 5.09444C15.0244 5.46064 15.2877 5.96517 15.3526 6.51248L16.4996 16.2625C16.5366 16.5782 16.5063 16.8982 16.4107 17.2014C16.315 17.5046 16.1563 17.7841 15.9449 18.0215C15.7334 18.259 15.4741 18.4489 15.184 18.5788C14.8938 18.7088 14.5795 18.7758 14.2616 18.7755ZM8.44855 2.27548C7.85206 2.27628 7.28023 2.51358 6.85844 2.93537C6.43665 3.35715 6.19935 3.92899 6.19855 4.52548H10.6986C10.6978 3.92899 10.4605 3.35715 10.0387 2.93537C9.61688 2.51358 9.04505 2.27628 8.44855 2.27548Z" fill="#8182E8"/>
</svg>
