<svg width="13" height="18" viewBox="0 0 13 18" fill="none" xmlns="http://www.w3.org/2000/svg">
<path fill-rule="evenodd" clip-rule="evenodd" d="M3.48638 17.8359C3.7033 17.9428 3.94172 17.9989 4.18355 18C4.39762 17.9984 4.60885 17.951 4.80307 17.8609C4.99729 17.7709 5.16998 17.6403 5.30955 17.478L11.6665 10.322C11.83 10.1379 11.9468 9.9171 12.007 9.67834C12.0673 9.43958 12.0692 9.18984 12.0126 8.95019C11.956 8.71054 11.8426 8.48802 11.682 8.30141C11.5213 8.1148 11.3181 7.96958 11.0896 7.878L8.89655 7L10.2215 1.929C10.2847 1.70573 10.2946 1.4708 10.2507 1.24298C10.2068 1.01517 10.1102 0.800791 9.96855 0.617C9.82049 0.426001 9.63091 0.271192 9.41417 0.164296C9.19743 0.0573987 8.95921 0.00121553 8.71755 0C8.50348 0.00162202 8.29225 0.0490446 8.09803 0.139081C7.90381 0.229117 7.73112 0.359682 7.59155 0.522L1.23355 7.674C1.07007 7.85814 0.953287 8.0789 0.89306 8.31766C0.832832 8.55642 0.830927 8.80616 0.887505 9.04581C0.944083 9.28546 1.05748 9.50798 1.21814 9.69459C1.37879 9.8812 1.58198 10.0264 1.81055 10.118L4.00355 11L2.67855 16.071C2.61536 16.2943 2.60534 16.5292 2.64927 16.757C2.6932 16.9849 2.78988 17.1992 2.93155 17.383C3.07972 17.5741 3.26945 17.729 3.48638 17.8359Z" fill="#8182E8"/>
</svg>
