<svg width="17" height="18" viewBox="0 0 17 18" fill="none" xmlns="http://www.w3.org/2000/svg">
<path id="Subtract" fill-rule="evenodd" clip-rule="evenodd" d="M7.45616 17.7755V9.58054L0.0454484 5.22596C0.015091 5.37639 -0.000260743 5.5301 3.35009e-06 5.68485V12.3169C0.000293146 12.7292 0.11112 13.1338 0.320941 13.4888C0.530763 13.8437 0.831904 14.1359 1.193 14.3349L7.338 17.7149C7.37686 17.7362 7.41626 17.7564 7.45616 17.7755ZM1.32741 3.59096L8.49864 7.80063L15.6144 3.61872L9.56 0.285853C9.21991 0.0983405 8.83787 0 8.4495 0C8.06114 0 7.6791 0.0983405 7.339 0.285853L1.32741 3.59096ZM16.8636 5.27802L9.54385 9.58054V17.7246C9.54924 17.7217 9.55463 17.7188 9.56 17.7159L15.706 14.3359C16.0677 14.1369 16.3693 13.8445 16.5793 13.4892C16.7893 13.1338 16.9001 12.7286 16.9 12.3159V5.68485C16.9 5.54788 16.8877 5.41175 16.8636 5.27802Z" fill="#8385EA"/>
</svg>
